<svg xmlns="http://www.w3.org/2000/svg" width="41" height="41" fill="none"><g clip-path="url(#a)"><path fill="#fff" d="M37.86 9.662a14.3 14.3 0 0 1-4.103 1.124A7.17 7.17 0 0 0 36.9 6.833a14.3 14.3 0 0 1-4.537 1.734 7.144 7.144 0 0 0-12.174 6.516A20.29 20.29 0 0 1 5.463 7.617a7.1 7.1 0 0 0-.967 3.593 7.14 7.14 0 0 0 3.178 5.947 7.1 7.1 0 0 1-3.236-.894v.09a7.15 7.15 0 0 0 5.732 7.005 7.2 7.2 0 0 1-3.229.123 7.15 7.15 0 0 0 6.675 4.963 14.34 14.34 0 0 1-10.577 2.959 20.2 20.2 0 0 0 10.95 3.211c13.143 0 20.33-10.887 20.33-20.329 0-.307-.009-.618-.022-.922a14.5 14.5 0 0 0 3.565-3.699z"/></g><defs><clipPath id="a"><path fill="#fff" d="M0 0h41v41H0z"/></clipPath></defs></svg>