<svg xmlns="http://www.w3.org/2000/svg" width="41" height="41" fill="none"><g clip-path="url(#a)"><path fill="#fff" d="M20.5 3.417c4.642 0 5.22.017 7.042.102 1.82.086 3.058.37 4.147.795a8.3 8.3 0 0 1 3.028 1.97 8.4 8.4 0 0 1 1.97 3.026c.421 1.089.708 2.329.794 4.148.08 1.821.102 2.4.102 7.042s-.017 5.22-.102 7.042c-.086 1.82-.373 3.058-.795 4.147a8.3 8.3 0 0 1-1.97 3.028 8.4 8.4 0 0 1-3.027 1.97c-1.088.421-2.328.708-4.147.794-1.821.08-2.4.102-7.042.102s-5.22-.017-7.042-.102c-1.82-.086-3.058-.373-4.148-.795a8.35 8.35 0 0 1-3.027-1.97 8.4 8.4 0 0 1-1.97-3.027c-.423-1.088-.708-2.328-.794-4.147-.08-1.821-.102-2.4-.102-7.042s.017-5.22.102-7.042c.086-1.82.37-3.058.795-4.148a8.3 8.3 0 0 1 1.97-3.027 8.4 8.4 0 0 1 3.026-1.97c1.09-.423 2.327-.708 4.148-.794 1.821-.08 2.4-.102 7.042-.102m0 8.541a8.542 8.542 0 1 0 0 17.084 8.542 8.542 0 0 0 0-17.084m11.104-.427a2.136 2.136 0 1 0-4.272 0 2.136 2.136 0 0 0 4.272 0M20.5 15.375a5.125 5.125 0 1 1 0 10.25 5.125 5.125 0 0 1 0-10.25"/></g><defs><clipPath id="a"><path fill="#fff" d="M0 0h41v41H0z"/></clipPath></defs></svg>