<svg xmlns="http://www.w3.org/2000/svg" width="54" height="54" fill="none"><g clip-path="url(#a)"><path fill="#fff" d="m4.509 49.5 3.042-11.178A22.4 22.4 0 0 1 4.5 27C4.5 14.573 14.573 4.5 27 4.5S49.5 14.573 49.5 27 39.427 49.5 27 49.5a22.4 22.4 0 0 1-11.317-3.049zm14.37-33.057c-.29.018-.574.095-.834.225a3 3 0 0 0-.662.513c-.27.254-.422.475-.587.688a6.14 6.14 0 0 0-1.271 3.776c.005 1.102.293 2.176.742 3.18.92 2.029 2.435 4.178 4.435 6.169.482.479.952.96 1.458 1.408a21.26 21.26 0 0 0 8.64 4.604l1.28.196c.417.022.833-.01 1.252-.03a4.5 4.5 0 0 0 1.874-.52c.373-.197.549-.297.861-.495 0 0 .097-.062.282-.202.304-.225.49-.385.742-.648.187-.194.349-.42.473-.68.175-.366.35-1.066.423-1.649.054-.445.038-.688.031-.839-.009-.24-.209-.49-.427-.596l-1.31-.587s-1.957-.853-3.152-1.398a1.1 1.1 0 0 0-.398-.092 1.08 1.08 0 0 0-.85.286v-.005c-.012 0-.163.128-1.79 2.1a.79.79 0 0 1-.828.292 3 3 0 0 1-.43-.149c-.278-.116-.375-.162-.566-.245l-.011-.004a13.5 13.5 0 0 1-3.533-2.25c-.284-.248-.547-.518-.817-.779a14.2 14.2 0 0 1-2.295-2.853l-.133-.214a2 2 0 0 1-.229-.46c-.085-.331.137-.597.137-.597s.547-.599.801-.922q.319-.405.592-.84c.265-.427.349-.866.21-1.206a187 187 0 0 0-1.954-4.592c-.133-.301-.526-.517-.884-.56a10 10 0 0 0-.364-.036 8 8 0 0 0-.907.009z"/></g><defs><clipPath id="a"><path fill="#fff" d="M0 0h54v54H0z"/></clipPath></defs></svg>