<svg xmlns="http://www.w3.org/2000/svg" width="132" height="39" fill="none"><path fill="#fff" d="M117.053 31.552c3.133-.01 7.063-.875 10.164-1.898l-1.854 7.903c-3.89.767-8.258 1.422-13.389 1.443-16.035.07-22.935-8.102-22.958-16.583C88.98 11.063 101.283-.27 121.099.005 125.302.06 129.305.808 132 1.68L129.379 11h-1.329c-1.638-2.125-4.127-3.736-9.039-3.736-10.042 0-16.256 5.453-16.237 12.721.019 6.58 5.74 11.59 14.279 11.567M59.113.364l-.626 2.47s3.8.413 2.634 4.171l-8.64 31.154 17.274.03.65-2.678s-3.23-.777-2.391-3.73c.067-.273 2.535-9.248 2.535-9.248l7.92-.013c3.942.02 5.246 2.048 5.246 2.048l2.296-9.251H72.67l1.984-7.267 11.59-.013c2.133 0 3.627 1.419 3.627 2.453h1.312L93.739.364zM46.015 32.598c-1.02-1.087-9.911-14.834-9.911-14.834L52.358 4.86c2.738-2.267 4.682-2.027 4.682-2.027l.637-2.486-20.22.016-.62 2.47c1.373.092 3.293 1.311 1.721 2.755-.195.181-16.241 12.336-16.241 12.336l3.453-12.41c.714-2.396 3.309-2.68 3.309-2.68l.633-2.48-19.304.01-.62 2.476c.92.23 3.554.732 2.637 4.17-6.442 23.103-5.695 20.804-6.13 22.073-1.763 6.672-4.599 6.333-5.63 6.402L0 38.16h20.186l.681-2.707s-3.208-.639-2.593-2.927c.606-2.266 3.14-11.36 3.14-11.36 3.494 5.576 4.313 6.262 8.524 12.015 4.214 5.753 8.723 4.992 20.66 4.996l.664-2.663c-2.548.012-4.226-1.83-5.248-2.914"/></svg>